<svg xmlns="http://www.w3.org/2000/svg" fill='#fff' width="211.666" height="46" viewBox="0 0 211.666 46"><g transform="translate(-39 82)"><text transform="translate(39 -46)" font-size="38" font-family="Candara"><tspan x="0" y="0">Lucie</tspan></text><path d="M182.182,596.857c-.164,0-.4.066-.475-.015-.12-.132-.235.05-.336-.064-.038-.043-.188.01-.286.024s-.2.044-.305.051c-.042,0-.087-.036-.13-.056a.48.48,0,0,0,.141-.053.17.17,0,0,0,.068-.12.134.134,0,0,0-.094-.092.5.5,0,0,0-.4.1c-.205.183-.331.184-.548-.007-.192-.169-.466,0-.629-.2-.085.112-.147.248-.3.288,0,.228-.07.081-.166.057s-.226-.186-.348-.019a.983.983,0,0,1-.143-.1c-.03-.026-.054-.1-.071-.1a.319.319,0,0,1-.28-.2c0-.019-.058-.027-.2-.065-.067-.006-.029.021.01.021s.1-.037.1-.047a.893.893,0,0,0-.06-.16c-.048.048-.1.1-.047.185a.207.207,0,0,1,.073.229c-.133-.038-.318.149-.406-.1-.016-.046-.1-.069-.146-.1-.019.059-.07.153-.05.172.084.079.094.141-.007.2-.056.031-.144.076-.183.054a.741.741,0,0,0-.75-.008c-.049.024-.166-.03-.218-.082a1.1,1.1,0,0,1-.159-.261.291.291,0,0,0-.522-.062.1.1,0,0,0-.012.076.868.868,0,0,0,.036.117c-.05,0-.131.012-.144-.011-.153-.28-.339-.416-.648-.2-.031.021-.105-.208-.151,0-.006.028.079.106.128.111.145.015.292,0,.439.008.029,0,.057.035.085.053-.029.018-.061.055-.087.051-.314-.047-.651.119-.947-.1-.272.055-.509-.124-.774-.118-.2,0-.227-.078-.108-.223.068-.084.084-.2-.021-.2s-.333-.112-.358.091c-.03.253-.13.344-.374.342-.094,0-.187.079-.285.1-.064.013-.192,0-.2-.028-.082-.338-.4-.225-.514-.167a.476.476,0,0,1-.58-.018c-.023-.018-.072,0-.108,0-.085-.013-.17-.032-.254-.048.082-.057.165-.113.247-.171a.791.791,0,0,0,.069-.062.319.319,0,0,0-.091-.045c-.054-.008-.148-.021-.158,0-.169.358-.573.112-.813.314-.059.049-.278-.027-.377-.1-.165-.129-.27-.127-.4.036-.1.128-.2.162-.246-.057-.026-.119-.126-.113-.2-.036-.221.221-.258.231-.413.045-.041-.05-.039-.138-.083-.182-.071-.072-.264,0-.282.1s.023.215-.157.213c-.15,0-.184-.055-.182-.191,0-.048-.064-.136-.1-.138a6.032,6.032,0,0,0-.877,0c-.123.013-.233.194-.349.194s-.229-.183-.349-.191c-.184-.012-.391-.087-.565.085-.089.088-.207-.162-.354,0-.049.054-.223.034-.332.112-.033.024-.146-.094-.222-.094a1.285,1.285,0,0,0-.467.059c-.122.047-.1-.012-.112-.077-.026-.132-.115-.129-.193-.065-.182.151-.25.106-.248-.119,0-.043-.037-.086-.057-.129-.017.048-.019.113-.052.141a1.192,1.192,0,0,1-.253.16.378.378,0,0,1-.147.005c0-.062-.023-.151.009-.183.123-.121-.019-.167-.064-.193-.181-.1-.3-.067-.439.144-.1.161-.275.033-.391.115-.231-.208-.573.041-.8-.193-.009-.009-.051,0-.051,0-.04.265-.224.167-.384.166-.193,0-.386.042-.58.051s-.4.01-.6,0-.386-.046-.58-.051c-.105,0-.212.052-.317.049a3.354,3.354,0,0,0-.354-.057c-.081.007-.153.13-.234.137a2.09,2.09,0,0,1-.328-.071c-.145-.014-.293,0-.439-.008-.015,0-.049-.076-.038-.09a.988.988,0,0,1,.447-.345c.072,0-.018,0-.108,0-.019,0-.055.042-.051.05a.928.928,0,0,0,.116.221c.012.015.1-.038.148-.043a.435.435,0,0,1,.147.02c.04.01.106.048.111.042A2.4,2.4,0,0,0,158,595.5a.842.842,0,0,0-.156-.068,2.271,2.271,0,0,0-.325,0c-.182-.184-.328-.077-.414-.111-.221-.086-.143.232-.284.216-.2-.023-.264.051-.242.244,0,.024-.114.1-.15.084a3.579,3.579,0,0,1-.31-.181c-.041-.022-.136-.032-.142-.019-.1.24-.319.078-.46.139-.112.049-.172.1-.275,0a.19.19,0,0,0-.18.007c-.221.164-.235.029-.238-.148,0-.034-.045-.067-.069-.1-.013.031-.039.064-.036.094.018.154-.018.244-.2.221-.142-.018-.311.025-.421-.04-.078-.046-.081-.239-.245-.177-.094.036-.164.134-.257.176-.076.034-.2.066-.25.028a.3.3,0,0,0-.426-.019c-.09.061-.3.129-.291-.135l-.109.012c.015.116-.035.158-.153.156-.311-.006-.622,0-.933-.005a.147.147,0,0,1-.116-.073.176.176,0,0,1,.049-.138c.047-.048.118-.071.168-.117a.856.856,0,0,0,.106-.146c-.058-.02-.148-.075-.17-.056a.289.289,0,0,1-.386.048.326.326,0,0,0-.292.082.582.582,0,0,1-.477.191.419.419,0,0,0-.44.257c-.062.147-.118-.081-.191-.044a.76.76,0,0,1-.791,0,.21.21,0,0,0-.2.035c-.273.293-.7.058-.981.288-.171-.115-.416-.061-.556-.25-.083-.113-.17-.11-.268-.006a.163.163,0,0,1-.144.027c-.093-.034-.007-.254-.175-.2-.074.023-.113.194-.178.2a1.182,1.182,0,0,1-.467-.052.443.443,0,0,0-.446.019c-.1.076-.187.259-.245-.03-.006-.028-.164-.037-.25-.033a3.753,3.753,0,0,1-1.4-.2.289.289,0,0,0-.185.035c-.093.042-.176.1-.266.152a1.268,1.268,0,0,1-.794.119c-.107-.007-.25-.035-.317.019-.152.123-.155.065-.171-.077,0-.025-.161-.071-.183-.048-.207.223-.543-.021-.739.214-.235-.051-.47-.1-.7-.155-.063-.014-.14-.066-.185-.046a2.063,2.063,0,0,0-.3.2c-.1-.152-.195-.01-.293,0a.827.827,0,0,1-.38-.006,2.279,2.279,0,0,0-.836-.105,4.463,4.463,0,0,1-.776-.116.407.407,0,0,0-.3,0c-.106.043-.265.04-.244-.165a.6.6,0,0,1-.261.033c-.033-.011-.016.011,0,.032l.049-.049a.494.494,0,0,0-.066-.049s-.022.021.016.066c-.032.228-.238.169-.264.079-.073-.259-.166-.179-.277-.056a.28.28,0,0,1-.372.087.506.506,0,0,0-.632.025c-.016.014-.136-.043-.136-.068,0-.315-.148-.485-.421-.473a.6.6,0,0,0-.144.043c.032.038.066.075.1.115s.077.113.115.169c-.141.013-.385-.009-.4.045-.059.173-.086.156-.223.071-.156-.1-.338-.191-.492.052a.3.3,0,0,1-.294.042c-.19-.146-.347-.02-.521,0-.15.021-.3.223-.462.008-.02-.026-.109.009-.159-.006-.257-.077-.489.108-.753.055a4.594,4.594,0,0,0-.8-.049c-.063,0-.126.062-.19.063a.313.313,0,0,1-.154-.077.094.094,0,0,1-.017-.072c.06-.031.123-.055.186-.081-.089-.127-.174-.258-.273-.378-.015-.018-.119,0-.139.029a.716.716,0,0,0-.13.273c-.025.148-.049.114-.151.051a.457.457,0,0,0-.313-.024c-.073.017-.13.106-.194.163.187.21.035.2-.091.117a.3.3,0,0,0-.342-.027,1.145,1.145,0,0,1-.186.06l.064-.155c-.084-.018-.19-.078-.247-.047-.13.072-.236.182-.354-.005-.194.1-.448.068-.6.265-.067.086-.159.1-.222,0-.1-.142-.19-.152-.331-.056a.335.335,0,0,1-.413.028c-.2-.106-.5-.009-.756-.03-.14-.012-.258-.112-.389.06a.375.375,0,0,1-.349.046,1.041,1.041,0,0,0-.907,0c-.123.052-.372.11-.4-.18a.332.332,0,0,1-.4-.012c-.1-.054-.305.095-.422.049a.632.632,0,0,0-.383,0,1.8,1.8,0,0,1-.959.059c-.116-.044-.219-.017-.252-.188-.02-.1-.142-.185-.261-.054-.051-.052-.142-.1-.145-.157-.009-.2-.057-.16-.171-.061-.042.037-.141,0-.212.015-.019,0-.032.044-.047.068l.094.038.093.039a.912.912,0,0,0-.288.284c-.019.028-.179,0-.24-.05-.234-.183-.23-.191-.378-.064a.924.924,0,0,0-.154.156c-.1.145-.138-.006-.194-.045a.111.111,0,0,1-.045-.087c.038-.187-.311-.065-.228-.287a.394.394,0,0,0-.134-.052,3.384,3.384,0,0,0-.439,0c-.029,0-.081.077-.076.111.042.267-.207.251-.333.311a.5.5,0,0,1-.425,0c-.169-.119-.276.014-.408.023-.053,0-.1.045-.155.043a2.011,2.011,0,0,0-.737-.03c-.179.068-.325-.09-.5.034-.1.068-.316-.023-.476-.061a.92.92,0,0,1-.223-.122c-.039-.023-.092-.077-.114-.066a1.884,1.884,0,0,0-.236.156c-.11-.168-.152.079-.255.042-.071-.026-.112-.152-.254-.036-.123.1-.32.005-.493-.062-.118-.046-.293.215-.465.017-.392,0-.784,0-1.176.011-.1,0-.218.087-.3.057a5.681,5.681,0,0,0-1.77-.1,1.116,1.116,0,0,0-.782.1.238.238,0,0,1-.2-.023c-.076-.045-.18-.188-.19-.18-.323.247-.708,0-1.042.138-.109.046-.287.109-.346.06-.258-.213-.609.026-.856-.2a.215.215,0,0,0-.2.023c-.237.2-.577-.045-.8.189-.009.01-.06-.023-.092-.034a2.411,2.411,0,0,1-.334-.12c-.141-.075-.25.129-.364.041s-.2-.009-.3,0c-.383.02-.769-.005-1.152.012a2.624,2.624,0,0,0-.951.086.784.784,0,0,1-.678-.05.545.545,0,0,0-.311-.037,5.139,5.139,0,0,0-1.6.1c-.3-.211-.632-.072-.948-.091a1.143,1.143,0,0,0-.73.091.479.479,0,0,1-.416-.022c-.245-.151-.5-.03-.739-.076-.394.268-.692.064-.98-.2-.2-.182-.213-.188-.378.013a2.4,2.4,0,0,0-.348.514c-.072.158-.152.148-.226.051-.186-.244-.5-.22-.732-.367a.456.456,0,0,0-.42.007c-.173.133-.344.077-.516.087-.119.007-.254.051-.351-.083-.021-.029-.1-.031-.151-.02-.115.027-.226.071-.34.106-.1.03-.172-.185-.308-.011-.039.049-.255-.01-.4-.049a1.1,1.1,0,0,0-.926.06c-.131.084-.262.037-.4.012-.125-.022-.267-.188-.4-.011a2.973,2.973,0,0,1-1.2-.157c-.028-.01-.073-.049-.075-.046-.157.188-.383.032-.557.116a.4.4,0,0,0-.117.115c-.051.064-.078.06-.16.017-.233-.12-.533.042-.759-.155-.518.22-1.1.121-1.627.313-.185.067-.439-.057-.662-.093a3.03,3.03,0,0,0-.768.047,1.043,1.043,0,0,1-.709.069c-.2-.075-.37.075-.523.181a1.627,1.627,0,0,1-1.675.266c-.19-.041-.33-.331-.57-.134-.122-.238-.388-.214-.585-.312-.137-.068-.15-.3-.393-.241-.151.035-.335-.1-.5-.089a5.151,5.151,0,0,0-1.452.066c-.043.015-.184-.088-.181-.129.021-.329-.227-.332-.437-.383a1.375,1.375,0,0,1-.206-.034.184.184,0,0,1-.075-.3.818.818,0,0,1,.156-.154c.187-.127.031-.2-.046-.271a.6.6,0,0,0-.155-.08c.053-.05.107-.144.157-.142.16.007.253-.021.312-.2.017-.049.258.01.347-.052.241-.168.523-.26.754-.429.122-.089.16-.011.247,0a1.106,1.106,0,0,0,.516.024,2.949,2.949,0,0,1,.654-.017,1.832,1.832,0,0,0,.841-.093.521.521,0,0,1,.464.044c.085.048.244-.039.371-.056.072-.01.161.025.217-.006a2.248,2.248,0,0,1,1.111-.238c.076,0,.172-.08.223-.054.309.157.687.052.978.3a.632.632,0,0,0,.854.12c.187-.139.348.131.575.01a.632.632,0,0,1,.618.054.237.237,0,0,0,.2.03c.4-.209.851.2,1.244-.093a.477.477,0,0,0,.618-.011c.273.233.385-.04.556-.165.119-.087.234-.195.429-.028.152.131.415.13.628.193a1.675,1.675,0,0,0,1.177.011,1.28,1.28,0,0,1,.16-.011c.332-.038.684.1,1-.109.189.207.378-.011.568-.005.079,0,.157-.067.239-.079.19-.029.382-.085.559.065a.414.414,0,0,0,.273.12c.212-.033.414.293.623.013.274.22.595.056.89.105a2.124,2.124,0,0,0,.833-.108c.2-.046.4-.087.6-.134a1.486,1.486,0,0,1,.294-.082c.381,0,.385.006.61-.166.085-.065.194-.1.22,0,.105.4.4.29.641.234a1.931,1.931,0,0,1,1.184.041.943.943,0,0,0,.938.044.238.238,0,0,1,.144-.045c.151.027.356.148.437.09a.636.636,0,0,1,.46-.089c.443.026.886.064,1.327.11a.772.772,0,0,1,.283.108c.121.068.228.2.358.008.012-.018.108,0,.141.023a.255.255,0,0,0,.413-.042.308.308,0,0,1,.392-.091c.276.163.561.068.84.1a.311.311,0,0,0,.163,0c.135-.074.264-.162.392-.249.178-.122.252.089.382.115.155.032.317.038.418.193.009.015.074-.007.113-.011a5.19,5.19,0,0,1,.979-.154c.068.006.19.014.2.04.062.3.177.192.314.057a.27.27,0,0,1,.177-.093c.333.046.681-.116,1.008.085.08.049.212.018.32.018.274,0,.551.02.823-.005.242-.023.51.118.726-.1.2.25.529-.028.748.177.031.029.122,0,.183-.011.084-.016.164-.05.248-.061.17-.023.316.186.523.01.112-.095.356.061.5-.117a1.834,1.834,0,0,1,.409.19c.111.088.177.153.279,0a.284.284,0,0,1,.121-.086c.231.241.457-.007.682,0,.037,0,.075.053.106.086a.638.638,0,0,0,.7.146,1.415,1.415,0,0,1,.607-.134,3.94,3.94,0,0,0,.559-.1.329.329,0,0,1,.316.259c0,.021-.071.041-.1.069a.516.516,0,0,0-.066.086c.138-.017.314.142.407-.087l.091-.036-.091-.074c.093-.229.3-.127.4-.077.353.17.715.024,1.067.077.134-.214.27-.065.4,0a.639.639,0,0,0,.69.027c.128-.082.19-.012.19.137,0,.055.053.11.082.165.045-.039.09-.078.133-.118s.064-.1.1-.1c.142,0,.324-.037.418.035.15.114.205.027.32-.028.066-.032.277-.108.269.134,0,.008.08.036.1.023.083-.071.15-.163.239-.225.045-.032.152-.047.179-.019.124.13.274.063.411.075a2.284,2.284,0,0,1,.947.1.347.347,0,0,0,.351-.064.629.629,0,0,1,.815-.014.581.581,0,0,1,.078.077c.1-.249.272.013.427-.052a.593.593,0,0,1,.736.117c.073.087.145.068.228,0a.809.809,0,0,1,.264-.155.19.19,0,0,1,.162.078.87.87,0,0,1,.063.242c.058-.036.12-.105.174-.1a.821.821,0,0,1,.283.1c.106.056.147-.175.26-.051l.569-.032.317-.029c.207-.019.433.067.616-.107a.1.1,0,0,1,.1.016c.047.053.075.164.12.169.075.008.156-.061.238-.073a.405.405,0,0,1,.206.027.778.778,0,0,0,.527.061.163.163,0,0,1,.2-.012.5.5,0,0,0,.418.017c.236-.172.377-.087.553.078.052.048.2.023.288,0s.174-.108.268-.146a.365.365,0,0,1,.208-.023,1.193,1.193,0,0,0,.969-.009c.142-.048.259-.173.4-.01.143-.107.34.084.481-.088.021-.026.182,0,.19.033.095.345.256.158.43.081.063-.028.258-.081.248.092-.014.217.071.251.252.234.039,0,.079.07.126.087.2.069.3.013.283-.211-.02-.295.134-.084.22-.111a5.945,5.945,0,0,1,1.549-.1.208.208,0,0,0,.092-.04c.1-.061.147-.249.3-.155.077.048.092.186.163.254a.213.213,0,0,0,.331-.017c.109-.125.2-.208.234.04.026-.007.073-.01.074-.02.016-.107-.018-.2.167-.091a1.343,1.343,0,0,0,.653.13,1.49,1.49,0,0,0,.6-.143.429.429,0,0,1,.531.048.473.473,0,0,0,.624.005.449.449,0,0,1,.337-.122,1.693,1.693,0,0,0,.492-.007c.141-.036.213.124.372.062.092-.036.249.115.384.159.032.011.092-.066.14-.1a1.131,1.131,0,0,1,.108.142c.059.108.17.117.2.029.04-.117.059-.191.2-.173a.45.45,0,0,0,.482-.162c.011-.016.089-.012.11.009.19.184.458.122.679.215.1.043.288-.04.4-.115a.171.171,0,0,1,.27.038.435.435,0,0,0,.274.138c.139.028.234-.17.364-.048.169.16.237-.086.373-.1s.236-.2.275.079a.277.277,0,0,0,.108,0,1.016,1.016,0,0,1,.816.046.481.481,0,0,0,.267.012,1.846,1.846,0,0,1,.647-.055c.244.077.42-.144.638-.061.13-.157.31.068.485-.083.105-.091.369-.048.546.085.059.044.178.014.268.006.154-.014.332.066.448-.108.1.154.253.1.393.109a.657.657,0,0,0,.218,0c.192-.063.367-.3.56-.2a1.315,1.315,0,0,0,.62.093c.219.01.439,0,.657.007.061,0,.117.077.18.087.033.005.077-.056.115-.087a1.193,1.193,0,0,0,.08.175.117.117,0,0,0,.091.037c.141-.008.331.029.413-.047.215-.2.365.11.529.031.139-.067.233-.2.426-.106.167.082.4-.074.556.118.023.027.1.005.159.006a1.9,1.9,0,0,1,.726.1c.18.074.329-.269.562-.12.26-.177.638-.02.864-.3.007-.009.144.046.151.083.023.133.04.084.149.062a1.447,1.447,0,0,1,.886.036,2.092,2.092,0,0,0,.588.038c.05,0,.095.068.142.129v-.024a.306.306,0,0,0-.083.033c-.007.005.011.044.018.067a.207.207,0,0,0,.065-.075c.148-.1.219-.428.472-.163a.149.149,0,0,0,.143.012c.277-.217.528-.054.785.042a1.064,1.064,0,0,0,.295.08.64.64,0,0,0,.364-.038c.156-.106.229.1.371.05.113-.041.255.006.381-.012s.261-.085.395-.1.337-.062.429.008c.169.129.282-.06.412-.01s.24.127.366.177a.223.223,0,0,0,.183,0c.184-.14.388-.032.58-.06.027,0,.085.057.093.1.036.171.138.16.218.061a.448.448,0,0,1,.43-.162c.138.013.27-.018.407.092.062.05.252-.091.38-.084.2.01.482,0,.592.128.164.184.28-.057.4.035a3.691,3.691,0,0,0,.385.264c.03.018.1-.016.142-.042a.1.1,0,0,0,.011-.1c-.039-.059-.1-.105-.139-.164a.4.4,0,0,1-.037-.115c.035,0,.082-.027.1-.012a.325.325,0,0,0,.431.051c.051-.033.211.151.323.153s.2-.169.363-.01a1.408,1.408,0,0,0,.533.234.707.707,0,0,1-.139.179c.03.016.074.054.086.046.077-.054.148-.118.22-.179a.778.778,0,0,0-.168-.046c.013-.191.153-.1.26-.078.081.014.163.09.236.08.228-.032.38-.281.693-.125a1.97,1.97,0,0,0,.808.021,1.842,1.842,0,0,1,1.069.187c.038.025.124.042.142.022.1-.116.193-.142.312-.014.023.024.118-.022.181-.031.156-.02.312-.04.469-.053a.25.25,0,0,1,.3.234c.02.125.075.09.125.023.111-.147.2-.182.232.044a.489.489,0,0,1,.077-.021c.038,0,.077,0,.115,0v.164l-.091.036a.193.193,0,0,0,.132.052c-.008.037-.036.055-.039.077-.018.152.086.221.2.272a.109.109,0,0,0,.094-.027c.021-.021.039-.079.027-.093a.918.918,0,0,0-.286-.229c-.041-.015-.041-.052-.041-.088.132-.165.317-.051.474-.079A3.73,3.73,0,0,1,176,595.2c.183.018.131.128.139.226-.1,0-.209.006-.313,0a.287.287,0,0,0-.346.245v-.024a.3.3,0,0,0-.083.033c-.007.005.011.043.018.067a.207.207,0,0,0,.065-.075c.229.117.441.359.735.087a.413.413,0,0,1,.14-.053c-.06-.025-.14-.035-.173-.08a.5.5,0,0,1-.043-.2c.181.038.047-.292.27-.224.112.034.257-.012.352.042.051.029.017.193.041.291a1.411,1.411,0,0,0,.128.259c-.036-.009-.055-.037-.073-.037a.931.931,0,0,0-.142.025c.006.024.013.069.019.069a.342.342,0,0,0,.2-.058.135.135,0,0,1,.142-.036c.1.034.115.24.265.154.025-.015-.041-.186-.062-.285a.294.294,0,0,1,0-.077c.049,0,.12-.012.144.015a.642.642,0,0,1,.082.183.6.6,0,0,1,.08-.169c.093-.1.174-.253.346-.077.047.049.169.029.256.033.157.008.324-.035.453.106,0,0,.089-.068.136-.1.129.146.387.141.444.376,0,.01.069,0,.106.006,0-.209.085-.213.227-.1.026.02.076.054.086.046.264-.209.523-.049.787,0a.38.38,0,0,0,.43-.149c.057-.088.136-.093.224-.018.173.148.3.468.6.174a.408.408,0,0,0,.341.318,2.223,2.223,0,0,0,.042-.254c0-.025-.047-.051-.063-.082a.2.2,0,0,1-.006-.076l.393.156c-.048.015-.124.016-.141.048-.069.132-.2.306-.161.4.057.141-.057.311.09.42C182.19,596.811,182.182,596.839,182.182,596.857Zm-40.706-1.208h-.049a.3.3,0,0,0,.033.083c.005.007.043-.011.067-.018-.017-.022-.034-.043-.2-.129l.052.064.049-.049a.494.494,0,0,0-.066-.049S141.339,595.572,141.476,595.649Zm10.326-.769h-.049a.307.307,0,0,0,.033.083c.005.007.043-.011.067-.018-.017-.022-.034-.043-.2-.129l.052.064.049-.049a.526.526,0,0,0-.066-.049S151.665,594.8,151.8,594.88Zm28.952,1.318-.083-.11c-.046.037-.091.073-.093.24-.05-.068-.079-.128-.095-.125a.828.828,0,0,0-.169.068c.031.049.053.121.1.139s.094-.044.122-.212h.22a.313.313,0,0,0,.033.083c.005.007.043-.011.067-.018A.171.171,0,0,0,180.754,596.2Zm-8.349-.72v-.049a.305.305,0,0,0-.083.033c-.007.005.011.043.018.066.022-.017.043-.034.214-.368-.059.085-.105.15-.147.218,0,0,.03.046.049.047.087.009.177.01.166-.117C172.621,595.28,172.6,595.252,172.405,595.478Zm-14.94-.33V595.1a.311.311,0,0,0-.083.033c-.007.005.011.043.018.067.022-.017.043-.034.142-.34-.026.065-.055.126-.074.19,0,.011.031.034.048.051l.154-.179C157.643,594.907,157.614,594.893,157.466,595.149Zm-38.316-.06-.073-.1c-.02.025-.056.051-.055.076a.539.539,0,0,0,.042.135,3.351,3.351,0,0,1,.471-.408c-.09.037-.151.065-.214.087s-.128.038-.193.057c.072.018.145.035.216.054.032.009.077.014.091.037a1.255,1.255,0,0,1,.078.182.872.872,0,0,0,.142-.263C119.663,594.9,119.565,594.829,119.149,595.089Zm47.974.048.09-.048c-.021-.033-.049-.1-.063-.094a.841.841,0,0,0-.566.639.317.317,0,0,0,.026.1c.039-.02.091-.031.113-.063.048-.069.071-.156.122-.221a.55.55,0,0,1,.151-.1c.017.068.187.072.08.2-.015.018.008.069.013.1.048-.016.135-.028.138-.048a.8.8,0,0,0-.019-.257A1.3,1.3,0,0,0,167.123,595.137Zm5.027.419c-.115-.061-.18-.125-.239-.119a.441.441,0,0,0-.224.112.311.311,0,0,0-.118.191c0,.082.243.181.319.124A1.992,1.992,0,0,0,172.151,595.556Zm-24.542-.561c-.217-.017-.323.059-.352.215-.005.028.078.1.128.105a.243.243,0,0,0,.3-.215C147.69,595.062,147.621,595.01,147.609,594.994Zm29.529,1.082c-.027-.042-.053-.1-.063-.094-.16.043-.319.091-.475.145-.016.006-.03.073-.017.094.024.036.08.09.1.081.126-.046.232-.149.387-.111C177.085,596.2,177.118,596.113,177.138,596.076ZM137.8,594.66a.286.286,0,0,0-.194.4c.016.029.131.043.135.036.057-.131.1-.267.147-.4C137.889,594.693,137.831,594.672,137.8,594.66Zm40.344,1.32c-.049,0-.082,0-.082,0-.014.133-.026.266-.038.4.038-.013.1-.015.11-.04a1.177,1.177,0,0,0,.087-.284C178.226,596.031,178.161,596,178.145,595.98Zm-1.734-.122-.251.305a.4.4,0,0,0,.092.034c.193.021.257-.048.216-.237A.45.45,0,0,0,176.411,595.858Zm-21.476-.648a.316.316,0,0,0,.106,0,.267.267,0,0,0,.114-.077c.015-.019-.005-.065-.01-.1-.038.01-.075.023-.114.03-.084.015-.169.022-.252.041-.019,0-.033.044-.042.07,0,.008.022.034.036.035C154.828,595.212,154.882,595.21,154.935,595.21Zm25.123.942c-.04.089-.072.126-.07.161,0,.077-.053.191.081.211.042.006.09-.033.135-.052Zm-8.645-.051c.046-.018.072-.021.074-.031s.013-.06,0-.072a.817.817,0,0,0-.157-.126c-.022-.013-.063.009-.1.015.012.037.015.084.039.109A.968.968,0,0,0,171.413,596.1Zm-.233-.729c-.049.087-.1.143-.087.163a.528.528,0,0,0,.13.114c.028-.036.085-.079.078-.107C171.288,595.491,171.238,595.45,171.18,595.372Zm-12.6-.566c-.028-.068-.039-.1-.054-.127a.039.039,0,0,0-.035,0,1.869,1.869,0,0,0-.143.2c-.01.017.02.059.035.087a.039.039,0,0,0,.035,0C158.477,594.912,158.534,594.853,158.58,594.805Zm6.771-.094a.649.649,0,0,0-.08.194c0,.028.088.087.1.079a.3.3,0,0,0,.109-.132C165.486,594.833,165.423,594.788,165.351,594.712Zm8.54,1.359c-.087-.049-.143-.1-.163-.087a.531.531,0,0,0-.115.13c.036.028.079.085.107.078C173.771,596.18,173.813,596.13,173.891,596.071Zm-15.494-.649-.145.189c.03.013.075.044.087.034a.446.446,0,0,0,.111-.13C158.458,595.5,158.421,595.461,158.4,595.422Zm2.348-.259.049.135.186-.143c-.028-.018-.058-.055-.082-.051A.782.782,0,0,0,160.745,595.163Zm-40.652-.011-.144-.16c-.018.046-.062.116-.048.132a.428.428,0,0,0,.158.083S120.087,595.162,120.094,595.152Zm61.469,1.139-.132.055.151.178c.017-.028.052-.061.047-.084A.755.755,0,0,0,181.563,596.29Zm-36.492-.822-.055-.132-.178.151c.028.017.06.052.084.047A.765.765,0,0,0,145.07,595.469Zm-27.707.128.189.145c.012-.03.044-.075.034-.087a.446.446,0,0,0-.13-.111C117.442,595.535,117.4,595.573,117.363,595.6Zm32.721-.812a.78.78,0,0,0,.135.092c.021.009.059-.021.089-.034l-.151-.178Zm-17.862.1a.835.835,0,0,0-.019.156c0,.015.045.028.069.042a.8.8,0,0,0,.034-.144C132.307,594.925,132.263,594.909,132.222,594.884Zm12.478.44c-.04.025-.085.041-.084.054a.793.793,0,0,0,.034.144c.024-.014.068-.026.069-.041A.842.842,0,0,0,144.7,595.324Zm12.989-.641c.025.04.041.085.054.084a.789.789,0,0,0,.144-.034c-.014-.024-.026-.068-.041-.069A.836.836,0,0,0,157.689,594.683Zm2.087.879c.025.04.041.085.054.084a.786.786,0,0,0,.144-.034c-.014-.024-.026-.068-.041-.069A.851.851,0,0,0,159.777,595.561Zm.778-.141-.123.064c.028.018.058.054.083.051a.559.559,0,0,0,.137-.051Zm2.058-.056c.043.028.073.064.1.061a.563.563,0,0,0,.137-.051c-.028-.018-.056-.052-.083-.052A.673.673,0,0,0,162.613,595.364Zm1.934-.068-.144.06a.327.327,0,0,0,.1.069c.025.007.059-.021.09-.034Zm.145.186a.42.42,0,0,0,.1.034.124.124,0,0,0,.033-.085.323.323,0,0,0-.069-.1Zm4.33.06a.818.818,0,0,0-.019.157c0,.015.045.028.069.041a.812.812,0,0,0,.034-.144C169.107,595.584,169.063,595.568,169.022,595.543Zm-14.409-.861c.025.04.041.085.054.084a.787.787,0,0,0,.144-.034c-.014-.024-.026-.068-.041-.069A.834.834,0,0,0,154.614,594.683Zm23.995,1.273-.144.06a.328.328,0,0,0,.1.069c.025.006.059-.021.09-.034Zm1.134.137c-.04.025-.085.041-.084.054a.817.817,0,0,0,.034.144c.024-.014.068-.026.069-.041A.826.826,0,0,0,179.743,596.092Zm-65.284-1.432c-.012.012-.036.027-.034.036a.331.331,0,0,0,.034.074c.012-.012.036-.027.034-.036A.332.332,0,0,0,114.459,594.66Zm1.412,1-.039.039a.342.342,0,0,0,.074.034c.009,0,.024-.022.036-.034Zm56.738.243-.039-.039a.329.329,0,0,0-.034.074c0,.009.022.024.034.036Zm-26.662-1.067.039.039a.348.348,0,0,0,.034-.074c0-.009-.022-.024-.034-.036Zm-1.153.824-.071.039c.012.012.027.036.036.034a.338.338,0,0,0,.074-.034Zm22.817-.44-.039.039a.34.34,0,0,0,.074.034c.009,0,.024-.022.036-.034Zm.691.22-.071.039c.012.012.027.036.036.034a.349.349,0,0,0,.074-.034Zm10.734.847.071-.039c-.012-.012-.027-.037-.036-.034a.339.339,0,0,0-.074.034Zm-13.041-.518-.071.039c.012.012.027.036.036.034a.344.344,0,0,0,.074-.034Zm-8.239-.549-.071.039c.012.012.027.036.036.034a.349.349,0,0,0,.074-.034Zm12,.573-.039-.039a.342.342,0,0,0-.034.074c0,.009.022.024.034.036Zm-14.429-1.028c-.012.012-.036.027-.034.036a.348.348,0,0,0,.034.074c.012-.012.036-.027.034-.036A.351.351,0,0,0,155.324,594.77Zm-.973.895-.071.039c.012.012.027.036.036.034a.346.346,0,0,0,.074-.034Zm-33.559-.416.039.071c.012-.012.036-.027.034-.036a.346.346,0,0,0-.034-.074Zm-2.527-.408.039.039a.34.34,0,0,0,.035-.074c0-.009-.022-.024-.035-.036Zm-1.554.424c.012.012.027.036.036.034a.348.348,0,0,0,.074-.034c-.012-.012-.027-.036-.036-.034A.338.338,0,0,0,116.711,595.264Zm67.339.824c.041.253.057.276.209.166a.954.954,0,0,1,.67-.166l.036.091.074-.091a1.774,1.774,0,0,0,.2-.04c.134-.043.2,0,.2.13a.468.468,0,0,1-.032.116.536.536,0,0,0,.175-.058c.033-.025.035-.092.051-.14a.653.653,0,0,0,.065.121c.021.025.063.055.089.05.064-.011.16-.079.182-.059a.284.284,0,0,0,.424.019.488.488,0,0,1,.313-.026c.143.018.04.073.016.13a.45.45,0,0,0,.007.185c.062-.019.143-.019.184-.06.243-.238.293-.276.432-.258a.38.38,0,0,1,.093.039.348.348,0,0,1-.048.077c-.118.109-.24.214-.358.323s-.232.219-.347.329c-.044-.036-.085-.1-.132-.1a4.067,4.067,0,0,0-.417,0l.072-.2a1.157,1.157,0,0,0-.216.078c-.037.022-.051.082-.075.124-.018,0-.051,0-.053,0-.029.1-.028.259-.085.284a1.164,1.164,0,0,1-.42.043.922.922,0,0,1-.2-.041c.075-.022.15-.045.226-.065.017,0,.038,0,.054,0,.049-.015.1-.033.144-.049-.049-.052-.1-.146-.146-.148-.24-.006-.5-.128-.706.116a.132.132,0,0,1-.113.042c-.3-.11-.313-.125-.527.061-.174.151-.152.025-.151-.085,0-.216-.075-.146-.163-.048s-.16.157-.311.042a1.421,1.421,0,0,0-.483-.148c-.083-.022-.2-.01-.245-.061a.526.526,0,0,1-.113-.277.859.859,0,0,0-.1-.4c-.094-.143.008-.246.2-.251.091,0,.183,0,.274,0s.174.021.26.032c-.042.164-.178.028-.252.079a1.226,1.226,0,0,0-.157.153c.1.08.1.157-.005.233a1.362,1.362,0,0,0,.211.154c.014.007.1-.075.111-.127.041-.136.145-.069.248-.085h-.024a.312.312,0,0,0,.033.083c.005.007.043-.012.067-.018a.2.2,0,0,0-.075-.065.206.206,0,0,1,.093-.277.111.111,0,0,1,.1.021C183.774,596.218,183.773,596.219,184.05,596.088Zm.479.455-.039.039a.343.343,0,0,0,.074.034c.009,0,.024-.022.036-.034Zm5.563.094c.233.074.033.29.132.4a.376.376,0,0,0,.209.141,2.088,2.088,0,0,0,.807-.016c.19-.07.307-.116.465.018.02.017.091-.028.139-.044-.177-.182.049-.28.085-.417.006-.022-.011-.051-.017-.076-.145.061-.228-.256-.419-.052-.081.086-.33.15-.389.1-.195-.175-.278.143-.429.059-.043-.024-.135-.04-.134-.054.018-.218-.139-.16-.3-.171Zm-3.823.324c-.047,0-.088-.068-.132-.1h-.22c.012.285.011.284.257.238.047-.009.116-.021.143,0,.187.168.41.054.612.085.025,0,.056-.033.085-.051a.4.4,0,0,0-.084-.055c-.086-.029-.228.069-.245-.111A4.1,4.1,0,0,1,186.268,596.962Zm1.988-.113c.051-.028.064-.147.072-.226,0-.029-.061-.063-.095-.1a1.062,1.062,0,0,0-.118.134c-.075.119-.135.26-.3.091a1.024,1.024,0,0,0-.141.1l.116.157A2.934,2.934,0,0,0,188.256,596.849Zm7.93-.1c-.083.032-.235-.085-.237.073,0,.047.2.146.3.133.126-.017.235-.135.385-.1.01,0,.038-.03.035-.035-.013-.025-.033-.065-.052-.066-.107-.006-.215,0-.322,0A.314.314,0,0,0,196.186,596.749Zm-8.527.368c-.05-.05-.11-.149-.148-.14a1,1,0,0,0-.259.138l.2.1Zm7.927-.372c.055.072.12.136.181.2.012-.03.042-.072.032-.089-.046-.077-.1-.148-.168-.237C195.607,596.687,195.577,596.732,195.587,596.745Zm2.835.188a.8.8,0,0,0-.07.111c.048.011.122.046.139.027a1.113,1.113,0,0,0,.113-.274A1.655,1.655,0,0,0,198.422,596.933Zm-8.382-.3a.373.373,0,0,0-.054.131.876.876,0,0,0,.042.19l.091-.161Zm-7.857.22.142.2c.026-.026.077-.058.073-.076a.475.475,0,0,0-.064-.121Zm10.33-.193c0,.023.032.055.05.082l.145-.184-.134-.051A.756.756,0,0,0,192.512,596.664Zm4.83.245c.025.02.051.056.076.055a.538.538,0,0,0,.135-.042l-.111-.086Zm-17.847-.157c-.015,0-.028.045-.041.069a.8.8,0,0,0,.144.034c.013,0,.029-.043.054-.084A.818.818,0,0,0,179.495,596.751Zm-.767-1.212.049-.049a.531.531,0,0,0-.066-.049s-.022.021-.035.034Zm-36.2-1.208.11.11Zm-.049,0,.049-.049a.491.491,0,0,0-.066-.049s-.022.021-.035.034Zm41.573,1.709.049.049a.519.519,0,0,0,.049-.066s-.021-.022-.034-.035Zm.989.049L185,596l-.074.091Zm-50.421-.439a.3.3,0,0,0,.033.083c.005.007.043-.011.067-.018l-.051-.065Zm53,.879c.012-.012.036-.027.034-.036a.341.341,0,0,0-.034-.074l-.039.039Zm-70.03-2.417-.091.036.091.074Zm77.664,2.581a.346.346,0,0,0-.074-.034c-.009,0-.024.022-.036.034l.071.039Zm.11-.11a.343.343,0,0,0,.074.034c.009,0,.024-.022.036-.034l-.071-.039Zm-77.994-2.637a.344.344,0,0,0,.074.035c.009,0,.024-.022.036-.035l-.071-.039Zm79.642,2.8a.309.309,0,0,0-.083.033c-.007.005.011.043.018.066l.065-.051Zm0-.049.049.049a.481.481,0,0,0,.049-.066s-.021-.022-.034-.035Zm.281.159.049-.049a.494.494,0,0,0-.066-.049s-.022.021-.035.034Zm4.333.165c.012.012.027.036.036.034a.34.34,0,0,0,.074-.034l-.039-.039Z" transform="translate(48.931 -642.652)"/></g></svg>