<svg xmlns="http://www.w3.org/2000/svg" width="703.832" height="124.445" viewBox="0 0 703.832 124.445"><path d="M33.653,21C23.17,31.986,9.644,45.174,9.644,47.034c0,1.522,1.353,2.029,3.043,2.029,5.748,0,21.3-6.932,29.926-10.821.676-.338.845-.676.845-1.014,0-.507-.338-.676-.845-.676C34.16,40.609,17.76,47.372,13.533,47.372c-1.353,0-1.691-.169-1.691-.845,0-1.86,25.361-26.206,46.664-47.171H72.2a.8.8,0,0,0,.845-.845.8.8,0,0,0-.845-.845h-12c7.608-7.439,14.54-14.371,19.443-19.443l-.507-.845H75.921C69.327-15.354,64.085-9.774,56.815-2.335H41.768a.8.8,0,0,0-.845.845.8.8,0,0,0,.845.845H55.125C50.391,4.259,45.149,9.5,37.71,16.6A279.835,279.835,0,0,1,.345,36.551c-.676.338-.845.676-.845,1.014,0,.507.338.676.845.676A254.946,254.946,0,0,0,33.483,20.659ZM48.869,49.908c36.012-17.245,57.146-24.684,65.769-24.684v.338C96.547,35.03,92.49,42.638,92.49,47.034c0,1.522,1.353,2.029,3.043,2.029,5.748,0,19.105-6.932,27.39-10.821.676-.338.845-.676.845-1.014,0-.507-.338-.676-.845-.676-8.115,4.058-22.317,10.821-26.544,10.821-1.353,0-1.691-.169-1.691-.845,0-2.536,4.058-10.652,25.023-21.979V23.364C105,23.364,83.36,31.986,62.9,41.454l-.169-.338C72.708,33,81.838,22.18,93.5,8.485c40.07-26.375,85.55-61.373,85.55-77.1,0-2.367-.845-3.889-3.212-3.889-7.1,0-25.023,16.569-45.988,37.365C112.947-18.4,100.943-4.026,89.615,8.993c-19.274,12.511-36.858,22.825-47,27.559-.676.338-.845.676-.845,1.014,0,.507.338.676.845.676,9.637-4.4,25.53-13.526,43.113-24.854C74.568,26.069,63.578,37.566,48.193,48.725ZM97.055,4.09c9.3-10.821,20.289-23.5,34.66-37.872,20.458-20.458,37.2-37.027,43.79-37.027.845,0,1.691.845,1.691,2.367C177.195-53.9,135.434-21.44,97.055,4.09Zm44.635,26.375c-5.918,4.565-10.482,10.482-10.482,15.386,0,2.2,1.353,3.551,5.41,3.551,7.439,0,22.656-7.1,31.109-11.159.676-.338.845-.676.845-1.014,0-.507-.338-.676-.845-.676-8.454,4.058-23.5,11.159-30.264,11.159-3.551,0-4.058-.845-4.058-2.367,0-1.184.845-2.874,2.2-4.734,12.68-3.381,25.7-8.792,25.7-15.386,0-1.522-.845-2.2-3.212-2.2-2.536,0-5.918,1.184-9.3,2.874-10.652,4.058-16.231,6.256-25.868,10.652-.676.338-.845.676-.845,1.014,0,.507.338.676.845.676,8.285-3.72,13.695-6.087,18.429-8.115Zm-4.565,8.285c5.579-6.594,16.231-14.371,20.8-14.371,1.353,0,1.86.507,1.86,1.353C159.78,30.634,149.129,35.368,137.125,38.749Zm39.056,8.285c0,1.522,1.353,2.029,3.043,2.029,5.748,0,22.148-6.932,30.771-10.821.676-.338.845-.676.845-1.014,0-.507-.338-.676-.845-.676-8.454,4.058-25.7,10.821-29.926,10.821-1.353,0-1.691-.169-1.691-.845,0-1.184,12.342-14.2,29.249-31.109,42.268-26.713,96.54-66.783,96.54-84.029,0-2.367-.845-3.889-3.212-3.889-7.1,0-25.023,16.569-45.988,37.365C237.553-17.89,218.279.877,203.232,16.263c-14.54,9.13-27.559,16.569-35.505,20.289-.676.338-.845.676-.845,1.014,0,.507.338.676.845.676,8.792-4.227,21.3-11.5,31.109-17.245C185.479,34.861,176.18,45,176.18,47.034ZM212.7,10.345l44.128-44.128c20.458-20.458,37.2-37.027,43.79-37.027.845,0,1.691.845,1.691,2.367C302.308-52.719,253.446-15.861,212.7,10.345Zm22.487,17.583c-11.159,8.454-16.738,14.709-16.738,19.105,0,1.522,1.353,2.029,3.043,2.029,5.748,0,17.922-5.579,26.544-9.975,12-6.087,13.864-7.27,20.8-10.652l.169.338c-11.159,8.454-16.738,13.864-16.738,18.26,0,1.522,1.353,2.029,3.043,2.029,5.748,0,22.148-6.932,30.771-10.821.676-.338.845-.676.845-1.014,0-.507-.338-.676-.845-.676-8.454,4.058-25.7,10.821-29.926,10.821-1.353,0-1.691-.169-1.691-.845,0-2.536,6.087-9.13,24.685-22.994l-.676-.845c-16.907,7.439-19.105,8.623-30.433,14.709-8.454,4.565-21.472,9.975-25.7,9.975-1.353,0-1.691-.169-1.691-.845,0-2.536,5.748-9.13,24.346-22.994l-.676-.845c-17.245,6.425-22.656,8.792-34.322,13.864-.676.338-.845.676-.845,1.014,0,.507.338.676.845.676C221.83,33,227.578,30.465,235.017,27.591Zm70,2.367c-5.579,4.4-9.806,10.144-9.806,15.555,0,2.2,1.691,3.72,5.748,3.72,5.748,0,21.134-7.439,29.757-11.328.676-.338.845-.676.845-1.014,0-.507-.338-.676-.845-.676-8.454,4.058-24.685,11.328-28.911,11.328-3.55,0-4.4-.845-4.4-2.536,0-6.932,17.076-21.472,25.192-21.472,2.367,0,3.551.845,3.551,2.874v.676a2.144,2.144,0,0,0-1.014-.169c-2.029,0-3.551,1.353-3.551,2.874,0,1.014.845,1.691,2.2,1.691,2.2,0,3.889-2.2,3.889-5.241,0-2.2-1.86-4.058-4.9-4.058-3.212,0-7.27,1.353-11.328,3.551-10.482,3.889-16.4,6.256-25.53,10.482-.676.338-.845.676-.845,1.014,0,.507.338.676.845.676,8.454-3.889,14.033-6.256,18.936-8.285Zm50.891-2.367c-11.159,8.454-16.738,14.709-16.738,19.105,0,1.522,1.353,2.029,3.043,2.029,5.748,0,22.148-6.932,30.771-10.821.676-.338.845-.676.845-1.014,0-.507-.338-.676-.845-.676-8.454,4.058-25.7,10.821-29.926,10.821-1.353,0-1.691-.169-1.691-.845,0-2.536,5.918-9.13,24.346-22.994l-.676-.845c-17.245,6.425-22.656,8.792-34.322,13.864-.676.338-.845.676-.845,1.014,0,.507.338.676.845.676C342.716,33,348.464,30.465,355.9,27.591ZM391.747-4.195a3.149,3.149,0,0,0,3.212-2.874,2.6,2.6,0,0,0-2.536-2.536,3.149,3.149,0,0,0-3.212,2.874A2.6,2.6,0,0,0,391.747-4.195Zm.169,34.66C386,35.03,381.433,40.947,381.433,45.85c0,2.2,1.353,3.551,5.41,3.551,7.439,0,22.656-7.1,31.109-11.159.676-.338.845-.676.845-1.014,0-.507-.338-.676-.845-.676-8.454,4.058-23.5,11.159-30.264,11.159-3.551,0-4.058-.845-4.058-2.367,0-1.184.845-2.874,2.2-4.734,12.68-3.381,25.7-8.792,25.7-15.386,0-1.522-.845-2.2-3.212-2.2-2.536,0-5.918,1.184-9.3,2.874-10.652,4.058-16.231,6.256-25.868,10.652-.676.338-.845.676-.845,1.014,0,.507.338.676.845.676,8.285-3.72,13.695-6.087,18.429-8.115Zm-4.565,8.285c5.579-6.594,16.231-14.371,20.8-14.371,1.353,0,1.86.507,1.86,1.353C410.007,30.634,399.355,35.368,387.351,38.749Zm38.887,12a4.377,4.377,0,0,0,4.227-4.565,2.865,2.865,0,0,0-2.705-3.043c-2.367,0-4.227,2.2-4.227,4.9A2.671,2.671,0,0,0,426.237,50.753Zm42.268-22.825c-11.159,8.454-16.738,14.709-16.738,19.105,0,1.522,1.353,2.029,3.043,2.029,5.748,0,22.148-6.932,30.771-10.821.676-.338.845-.676.845-1.014,0-.507-.338-.676-.845-.676-8.454,4.058-25.7,10.821-29.926,10.821-1.353,0-1.691-.169-1.691-.845,0-2.536,5.918-9.13,24.346-22.994l-.676-.845c-17.245,6.425-22.656,8.792-34.322,13.864-.676.338-.845.676-.845,1.014,0,.507.338.676.845.676C455.149,33,460.9,30.465,468.336,27.591ZM504.18-4.195a3.149,3.149,0,0,0,3.212-2.874,2.6,2.6,0,0,0-2.536-2.536,3.149,3.149,0,0,0-3.212,2.874A2.6,2.6,0,0,0,504.18-4.195Zm-11.5,54.1c36.012-17.245,54.61-24.684,63.233-24.684v.338c-18.091,9.468-22.994,17.076-22.994,21.472,0,1.522,1.353,2.029,3.043,2.029,5.748,0,21.3-6.932,29.926-10.821.676-.338.845-.676.845-1.014,0-.507-.338-.676-.845-.676-8.454,4.058-24.854,10.821-29.08,10.821-1.353,0-1.691-.169-1.691-.845,0-2.536,4.9-10.652,25.868-21.979V23.364c-14.709,0-31.616,7.608-52.074,17.076l-.169-.338c8.792-6.594,12-9.637,12-14.033,0-1.522-1.014-2.029-2.705-2.029-5.748,0-23.839,8.623-32.462,12.511-.676.338-.845.676-.845,1.014,0,.507.338.676.845.676,8.454-4.058,27.39-12.511,31.616-12.511,1.014,0,1.353.169,1.353.845,0,2.536-11.835,13.695-26.544,22.148Zm79.8.845c13.357-7.439,25.023-14.033,35.167-19.443a7.213,7.213,0,0,1,2.874,5.918c0,3.889-3.212,9.13-3.212,11.5,0,1.522,1.353,2.029,3.043,2.029,5.748,0,27.559-8.623,35.843-12.511.676-.338.845-.676.845-1.014,0-.507-.338-.676-.845-.676-8.115,4.058-30.771,12.511-35,12.511-1.353,0-1.691-.169-1.691-.845,0-1.184,3.551-6.932,3.551-10.482s-1.691-5.579-3.889-7.27C625.4,22.011,637.916,16.6,647.891,14.741l-.169-1.353c-15.047,2.2-40.07,15.893-61.542,27.9l-.169-.338c9.975-8.115,19.105-18.767,30.771-32.462,40.07-26.375,85.55-61.373,85.55-77.1,0-2.367-.845-3.889-3.212-3.889-7.1,0-25.023,16.569-45.988,37.365C636.225-18.4,624.221-4.026,612.893,8.993c-19.274,12.511-36.858,22.825-47,27.559-.676.338-.845.676-.845,1.014,0,.507.338.676.845.676,9.637-4.4,25.53-13.526,43.113-24.854-11.159,12.68-22.148,24.177-37.534,35.336ZM620.332,4.09c9.3-10.821,20.289-23.5,34.66-37.872,20.458-20.458,37.2-37.027,43.79-37.027.845,0,1.691.845,1.691,2.367C700.472-53.9,658.711-21.44,620.332,4.09Z" transform="translate(1 73)" stroke="hsl(0, 0%, 90%)" fill="hsl(0, 0%, 90%)" stroke-width="1"/></svg>