<svg xmlns="http://www.w3.org/2000/svg" width="362.722" height="81.556" viewBox="0 0 362.722 81.556"><path d="M35.418,3.316a16.282,16.282,0,0,1-3.021.126l-2.643-.126,5.286-8.81C36.047-6.753,37.18-7,37.18-8.137c0-.5,1.007-1.259,1.133-2.014,0-.5,1.259-.881,1.259-1.762a16.358,16.358,0,0,1,.252-2.14c0-.252.252-.378.378-.5s.126-.5.126-.881a2.548,2.548,0,0,1,.5-1.762c.126-.126.252-.252.252-.378,0-.5-.881-1.007-1.51-1.007a1.394,1.394,0,0,0-1.259.629c0,.881-1.762,1.636-1.888,1.636s-.252,0-.252.252-.252.881-.252,1.007C34.914-13.3,32.4-10.654,31.39-7.885c-.252.755-3.146,6.041-3.146,6.041a16.047,16.047,0,0,0-.881,1.51c-.5.881-2.517,3.65-2.517,3.65h-.881c-.755,0-1.636.126-1.762.126H20.818l-1.007-.126a2.371,2.371,0,0,1-1.007.252c-.881,0-1.762-.252-2.517-.252a.943.943,0,0,0-.629.126h-.629a.645.645,0,0,0-.755.5c-.126.252-.629.126-.755.378,0,.126-.126.5-.126.629s.126.378.252.378a1.2,1.2,0,0,1,.881-.252c.5,0,.881.126,1.384.126h.881A2.771,2.771,0,0,0,17.8,5.078c5.789-.126,6.167-.126,6.167-.126s-2.14,3.524-2.391,3.9a18.591,18.591,0,0,0-1.133,2.265c-.5,1.762-1.133,1.384-1.51,2.643l-.378.629c-.252,0-3.4,4.908-3.9,5.412a5.862,5.862,0,0,1-1.888,2.517c-.252.126-.252.629-.252.629-.378.252-.5.629-.881,1.259C10.5,25.467,3.45,33.9.3,37.046c-.378.378-.5.5-.5.881,0,.126.252.252.378.252C.933,38.053,3.2,35.284,3.7,34.906c.378-.252,5.915-6.167,5.915-6.167s-2.769,4.908-4.027,6.8c-.378.629-1.384,2.517-1.384,2.517,0,.126,0,.378.126.378-.126,0-.5.252-.5.378a12.73,12.73,0,0,0-1.259,4.908c0,4.405,3.021,5.16,3.65,5.16a.943.943,0,0,1,.629-.126L7.477,49l2.643-.5c.755-.378.629-.5.755-.5s.252.126.378.126c.881,0,2.014-1.384,3.65-2.265,1.888-1.007,4.153-3.776,6.293-5.16.378-.252.252-.5.629-.755a10.511,10.511,0,0,0,2.265-2.391.567.567,0,0,0-.378-.378,2.5,2.5,0,0,0-1.133.755A50.468,50.468,0,0,1,17.8,41.954l-3.272,2.517a3.155,3.155,0,0,1-.881.5,7.494,7.494,0,0,1-4.027,1.384l-.5-.126c-.5,0-1.259,0-1.51-.378A2.126,2.126,0,0,1,7.226,44.6c0-.252-.126-.755-.126-1.133,0-2.14,1.51-3.9,1.888-5.412.126-.629,1.259-1.51,1.51-2.643a2.759,2.759,0,0,1,.378-1.007,1.268,1.268,0,0,0,.378-.126c2.769-4.908,7.677-12.586,10.95-17.872a13.242,13.242,0,0,0,2.265-4.153c0-.126.126,0,.5-.629a4.038,4.038,0,0,0,.378-.629c.5-.629,3.524-6.041,3.524-6.041H38.942c1.384,0,2.643.126,3.524.126.126,0,.252-.126,1.133-.378a5.451,5.451,0,0,1,.629.126,1.6,1.6,0,0,1,.755-.126c.629,0,1.133.378,2.14.378,0,0,1.384.126,2.391.126.629,0,1.133,0,1.133-.252a3.373,3.373,0,0,0,2.14-.5c.126,0,.252-.378.252-.755s-.126-.629-.5-.629l-2.014-.378H45.612c-.629,0-1.384.126-2.265.126-.378,0-1.007.252-1.636.252l-5.286.378c-.126,0-.126-.252-.5-.252C35.8,3.19,35.669,3.316,35.418,3.316Zm21.773.252c-.126.252-7.8,7.677-7.8,7.677S53.164,5.078,53.415,4.7c0,0,1.384-2.391,1.636-2.643.755-1.51,6.167-10.32,5.915-9.943A26.676,26.676,0,0,1,62.6-10.4c.629-.378,1.007-1.888,1.259-2.014a13.825,13.825,0,0,0,1.133-1.762c.252-.252,8.307-10.572,10.32-10.572.252,0,.378.126.378.629,0,.755-.5,1.384-.5,2.14a1.268,1.268,0,0,0,.126.378c0,.378-.881,4.279-4.657,9.062a30.135,30.135,0,0,0-2.643,4.279c-.126.252-.5-.126-1.762,1.762-.252.252-.755.378-.881.629C63.987-3.858,58.45,2.183,58.45,2.183A7.465,7.465,0,0,0,57.191,3.568ZM31.013,44.094c.378-.755,2.265-4.531,2.643-5.034,1.762-3.272,3.272-6.293,3.146-5.915a5.111,5.111,0,0,1,.755-1.384,20.418,20.418,0,0,1,1.636-2.391c.5-.378.629-1.51.755-1.636.5-.252,5.034-8.558,7.048-11.7l.5-.881a7.442,7.442,0,0,1,2.517-2.895c3.272-3.524,5.789-5.412,7.426-7.174.252-.252.629-1.133,1.133-1.133a.37.37,0,0,0,.378-.378,47.377,47.377,0,0,1,4.153-4.783l5.286-5.664a65.835,65.835,0,0,0,7.929-10.572,19.792,19.792,0,0,1,.881-2.265,14.523,14.523,0,0,0,1.133-5.538,7.1,7.1,0,0,1,.126-.881c-.126,0-.126-.252-.126-.5v-.5c-.629-1.007-1.259-1.384-1.762-1.384-1.259,0-2.014.755-3.272,1.259a4.649,4.649,0,0,0-1.762.881c-1.007,1.133-3.272,2.391-3.4,2.643-.755,1.133-2.014,1.888-2.769,3.021-.252.252-1.762,2.014-2.014,2.14a4.763,4.763,0,0,0-1.133,1.636c0,.378-2.265,3.524-5.915,9.188-.378.629-.629,2.014-1.636,2.517a2.372,2.372,0,0,0-.5,1.133C53.415-2.6,51.4.17,50.017,2.813A4.031,4.031,0,0,1,48.759,5.2c-.5.252-.378.5-.5.755L47.374,7.6c-3.65,5.789-5.16,8.181-7.426,11.579a3,3,0,0,0-.755,1.384c0,.252-.881.629-1.259,1.384-.755,1.636-9.062,9.439-9.313,10.069l-.881.755a46.9,46.9,0,0,1-4.405,4.405,1.435,1.435,0,0,0-.378.755c0,.126,0,.252.378.252a.654.654,0,0,0,.5-.252,10.572,10.572,0,0,0,1.51-1.259s2.265-2.391,5.16-4.908a31.623,31.623,0,0,1,3.021-3.146l1.007-1.007,2.643-3.021-4.405,6.922c-.755,1.133-.755,1.51-.755,1.51a7.362,7.362,0,0,0-1.636,2.895c0,.252-.629.378-.755.755L27.615,40.7c0,.126-.252.378-.5.629a13.984,13.984,0,0,0-.881,2.014,4.524,4.524,0,0,0-1.007,2.769c0,.252-.252.5-.252.755a2.264,2.264,0,0,0,2.265,2.265h.629c.252,0,.5.252.629.252,1.636.126,8.307-7.929,8.181-8.055a4.278,4.278,0,0,1,1.259-.755c.252-.126,4.908-5.789,6.167-6.67.378-.252,4.153-3.9,4.531-4.027a21.273,21.273,0,0,1,6.167-5.16s-2.517,4.783-2.517,4.908c0,.252-.126.378-.126.5a16.117,16.117,0,0,0-1.384,3.021.761.761,0,0,1-.378.755,25.746,25.746,0,0,0-1.51,8.432V44.22c0,.5.126,1.007.5,1.133.5.126.881,1.384,1.007,1.384s.252.126.378.126a10.566,10.566,0,0,0,2.265.629c2.643,0,4.783-2.517,6.67-3.524.126,0,.126-.126.126-.378l.629-.378c.755-.881,2.391-2.014,2.391-2.391,0-.5,1.007-.629,1.259-1.259,0-.5,0-.629-.378-.629-.252,0-.629.378-.881,1.007,0,.378-.252.378-.378.378a22.436,22.436,0,0,0-3.4,2.643,7.794,7.794,0,0,1-2.391,1.888,5.409,5.409,0,0,1-1.51.252,1.27,1.27,0,0,1-1.007-.629,13.368,13.368,0,0,1-.5-2.391,32.351,32.351,0,0,1,.755-4.405c.126-.629,1.384-3.65,1.51-4.027a10.945,10.945,0,0,1,1.007-1.762,3.522,3.522,0,0,0,.629-1.259,3.2,3.2,0,0,0,.252-.881l2.14-3.9a20.133,20.133,0,0,1,1.384-2.391.954.954,0,0,0,.252-.5c0-.378-.378-.881-.378-1.007a1.6,1.6,0,0,0,.126-.755,5.279,5.279,0,0,0-1.762-1.133c-.252-.252,0-.378-.881-.629-.881,0-1.888,1.888-3.146,2.014-.378,0-.629.5-.881.881a48.607,48.607,0,0,0-4.279,3.65l-.378.378C47.626,28.613,34.788,40.318,31.768,45.1l-1.636,1.384A20.162,20.162,0,0,1,31.013,44.094Zm33.226-5.16A2.491,2.491,0,0,0,66,37.675c0-.126-.126-.5-.378-.5C65.5,37.172,64.239,38.179,64.239,38.934Zm10.32-3.021c.252,0,3.021-.755,3.524-1.384a.954.954,0,0,0,.5-.252,1.879,1.879,0,0,1,.881-.378c.126,0,.881-.5,1.259-.5a4.466,4.466,0,0,0,.881-.126,15.14,15.14,0,0,0,4.153-2.014s.126-.126.629-.126a20.133,20.133,0,0,1,2.391-1.384l1.133-.629c.881-.629,1.636-1.007,1.51-1.259-.126-.126.629-.629.755-.755a4.712,4.712,0,0,0,.755-1.259,1.866,1.866,0,0,0,.126-.881,1.6,1.6,0,0,0-.126-.755,5.193,5.193,0,0,0,.126-1.133.943.943,0,0,0-.126-.629l-.378-.881a4.814,4.814,0,0,0-2.265-1.51,1.268,1.268,0,0,0-.378.126s-1.007-1.007-1.636-1.007h-.629a5.451,5.451,0,0,1-.629.126c-.126,0-.5.126-.629.126a3.991,3.991,0,0,0-2.14.629,19.2,19.2,0,0,0-2.014,1.384,15.389,15.389,0,0,0-2.391,1.51,20.542,20.542,0,0,0-4.908,3.776c-.126.252-1.384,1.007-2.895,2.517L71.161,30.5l-1.133,1.007c-.378.755-.126,1.007-.629,1.133-.881,1.007-2.643,3.146-4.153,4.657a1.385,1.385,0,0,0-.378.755c0,.126.252.252.5.252.5,0,1.636-1.636,2.517-2.014A14.209,14.209,0,0,0,66.63,40.57c.126,5.538,1.762,7.3,4.405,8.181a9.3,9.3,0,0,0,2.391.378,8.526,8.526,0,0,0,2.391-.378H76.7c.252,0,.378-.126.629-.126.881,0,1.007-.5,1.762-.629a22.966,22.966,0,0,0,4.027-1.762L85.887,44.6a46.643,46.643,0,0,0,7.426-6.041c.378-.378.755-.755.755-1.007a.334.334,0,0,0-.378-.378,2.573,2.573,0,0,0-1.133.629,13.786,13.786,0,0,1-2.014,1.51c-.252.126-.755,1.007-1.384,1.51-.378.378-1.007.252-1.007.629,0,.126-.629.5-1.007.755a10.869,10.869,0,0,1-2.014,1.259c-.881.378-2.014,1.133-2.14,1.133a1.088,1.088,0,0,0-.755.378c-.755.755-2.265.881-3.65,1.259a8.563,8.563,0,0,1-1.888.252,4.656,4.656,0,0,1-3.65-1.51c-.126-.126-.126-.378-.252-.378s-.252-.252-.378-.378a2.481,2.481,0,0,1-.629-1.636,8.932,8.932,0,0,1-.252-1.762,3.724,3.724,0,0,1,.252-1.259c.378-1.007,0-1.762.881-3.021.629-.881.126-1.762.881-2.391.252-.252,2.14-3.524,2.391-3.9a54.023,54.023,0,0,1,4.405-5.412l.378-.378c.252-.252.881-.252,1.133-.5,1.888-1.888,3.524-2.643,4.405-2.643h.629a2.609,2.609,0,0,1,.755.252c.252.126.378.629.378,1.259a5.289,5.289,0,0,1-.629,2.769l-1.384,2.14c-.126.755-1.259,1.636-1.384,1.888-2.014,1.384-.755,1.007-2.14,1.51-.755.252-1.259,1.007-2.265,1.384-.5.126-2.643,1.007-2.643,1.384a.462.462,0,0,0,.126.378H76.573a4.365,4.365,0,0,0-2.391,1.259,1.268,1.268,0,0,0-.378.126.4.4,0,0,0,.378.378A.974.974,0,0,0,74.559,35.913Zm43.8-21.144A145.978,145.978,0,0,0,131.951-.46c.252-.378,2.895-3.4,3.272-4.027A10.668,10.668,0,0,1,136.985-7c.252-.126.5-.755.5-.755a24.291,24.291,0,0,1,2.14-3.021c.629-.629,3.021-4.908,3.4-5.538,3.021-5.664,3.776-7.677,4.405-10.446a12.469,12.469,0,0,0,.378-2.391c0-.252-.126-.629-.126-.755a8.054,8.054,0,0,1-.755-1.384c-.252-.629-.5-.755-2.14-.755h-.5c-.5.126-1.384,1.133-1.51,1.133s-.881.378-.881.5c.126.5-1.888,1.636-6.545,7.3-.629.755-2.265,3.776-2.769,4.279-.755.755-2.895,3.524-2.895,4.027-.126.629-3.272,5.286-4.405,7.174-.881,1.51-1.384,2.643-2.895,4.908L121-.46c-.755,1.384-2.265,3.776-4.783,8.558a11.657,11.657,0,0,1-1.51,2.391l-1.636,2.895a70.98,70.98,0,0,0-3.776,6.167c-.378.755-1.636,2.14-2.014,2.895a20.13,20.13,0,0,1-3.524,4.405s-9.062,9.313-9.565,9.817c-.378.252-1.133.881-1.133,1.259,0,.126,0,.252.252.252,1.007,0,3.272-2.895,3.776-3.272s1.888-1.762,2.265-2.14c2.014-1.762,4.783-4.783,4.783-4.783a116.655,116.655,0,0,0-6.041,10.7,5.605,5.605,0,0,1-.629,1.007,1.135,1.135,0,0,0-.126.629.951.951,0,0,1-.126.5,9.676,9.676,0,0,0-.629,3.272c0,.5.252,1.133.252,1.636a3.083,3.083,0,0,0,2.643,3.021c.252,0,.5.126.755.126a11.11,11.11,0,0,0,6.8-2.391c3.4-2.265,3.272-2.643,4.531-3.4.881-.5,3.524-3.4,4.027-3.776a3.593,3.593,0,0,0,1.384-1.888c0-.126-.252-.252-.378-.252-1.259.629-2.895,3.021-6.167,5.16-.378.252-3.524,3.4-6.922,3.4a2.4,2.4,0,0,1-1.007-.378,2.542,2.542,0,0,1-.881-2.14c0-1.259,0-2.14.755-2.895.126-.126,0-1.51.629-2.014s1.762-3.272,2.014-3.9c.629-1.384,3.146-5.034,4.405-7.8.126-.378,4.783-7.551,4.908-7.677Zm-2.014.5s2.769-4.531,3.776-6.293c.881-1.51,1.007-2.14,1.762-2.769a57.965,57.965,0,0,0,4.531-7.174c.252-.755,1.384-1.762,1.384-1.888,0-.755,1.259-2.14,1.384-2.517,1.007-3.021,5.034-8.307,5.034-8.81,0-.126.252-.252.629-.755a68.757,68.757,0,0,1,7.3-10.194c.378-.378,1.51-2.014,2.391-2.014.252.126.252.252.252.378s-.126.252-.252.5c-.252.755-.881,3.776-1.636,4.908a3.218,3.218,0,0,0-.252,1.384,10.079,10.079,0,0,0-1.007,2.14c-.378,1.259-1.133,1.636-1.636,3.146a4.009,4.009,0,0,0-.755,1.007c0,.881-3.524,4.783-3.524,5.538S133.713-6,133.713-5.368c0,.755-1.384,2.517-2.517,3.65-.5.629-.378.881-.755,1.133-.252.252-4.531,5.789-5.412,6.67-.5.755-1.762,1.762-3.4,3.776Zm.126,21.9c-.378.378-.5.378-.5.755,0,.126,0,.252.252.252.5,0,1.636-1.133,2.517-2.14l3.524-3.272-1.636,2.265c-.378.5-.5,1.133-.881,1.51-.755.881-1.259,2.643-1.888,3.9a12.55,12.55,0,0,0-.252,2.014,2.371,2.371,0,0,0-.252,1.007.961.961,0,0,0,.252.629v.5c0,.378.126.881.126,1.007.126.5.755,1.51.881,1.888,0,.378,1.007.629,1.259.881.126.126.755,0,.881.378,0,.126.5.126,1.133.126h.881c2.265,0,5.412-1.888,7.174-3.4l1.636-1.384a4.7,4.7,0,0,1,.881-.755l.629-.5c.881-.755,5.286-5.286,5.286-5.286a29.8,29.8,0,0,0-2.643,5.286c0,.881-.252,1.007-.252,1.51a6.036,6.036,0,0,0,.629,2.14c.252.126.126.629.378.755.629.378.5,1.259,1.762,1.259.252,0,.378.126.755.126h.881a1.551,1.551,0,0,0,.881-.252c1.007,0,3.272-1.51,3.272-1.51,1.007-.755,1.888-1.762,2.517-2.14a21.7,21.7,0,0,0,2.265-2.014A58.436,58.436,0,0,0,153.6,37.8a.5.5,0,0,0,.252-.5c0-.252-.252-.252-.378-.252-.252,0-.5.378-1.007.755a26.042,26.042,0,0,0-2.14,2.014c-3.021,2.643-4.279,3.524-5.16,4.279a20.969,20.969,0,0,1-2.517,1.636,3,3,0,0,1-1.51.5c-1.007-.126-1.133-.755-1.133-1.384,0-1.259,1.007-2.769,1.133-3.776a13.951,13.951,0,0,0,1.133-2.391c1.888-3.65,3.272-5.789,3.9-7.174.126-.126.126-.881.5-1.133.881-.629,2.391-3.524,2.895-4.027a3.6,3.6,0,0,0,1.133-2.14.462.462,0,0,1-.126-.378,5.451,5.451,0,0,1,.126-.629c0-.755-1.888-1.259-2.643-1.259a2.927,2.927,0,0,0-1.51,1.007,29.959,29.959,0,0,0-1.762,2.895l-1.762,3.146c-1.259,1.51-1.51,3.021-1.888,3.272s-.5.881-.755,1.259A69.453,69.453,0,0,1,132.2,41.7a10.5,10.5,0,0,1-2.014,1.51c-.126,0-1.007.881-1.51,1.133a7.3,7.3,0,0,1-4.027,1.51,2.536,2.536,0,0,1-2.014-.881,1.088,1.088,0,0,1-.378-.755c0-.252-.126-.5-.126-.755a4.467,4.467,0,0,1,.5-2.014,5.71,5.71,0,0,0,.252-1.007,1.349,1.349,0,0,1,.252-.755,27.67,27.67,0,0,0,1.888-3.9,12.133,12.133,0,0,1,1.259-2.265c.881-.755.881-1.384,1.384-2.14,1.762-2.769,3.021-5.538,3.9-6.167.5-.378,1.007-1.384,1.888-3.4a1.62,1.62,0,0,0-1.133-1.762c-.629-.252-1.888-2.14-2.265-2.265-.126,0-.881.126-.881.629a6.291,6.291,0,0,1-.5,2.895c-.755,1.384-1.51,2.895-2.643,4.657a.462.462,0,0,0-.126.378c0,.378-.252.378-.629,1.007a6.066,6.066,0,0,1-1.007,1.259c-1.51,1.51-3.272,4.027-5.664,6.293L117.6,36.039A4.313,4.313,0,0,0,116.47,37.172Zm53.867,9.439c.881.126,5.034-3.272,5.412-3.272a8.523,8.523,0,0,0,1.636-1.51c1.259-1.259,4.405-3.272,4.405-4.405a.271.271,0,0,0-.252-.252c-1.133,0-3.021,2.769-5.412,4.153l-.629.378c-2.265,1.636-3.65,3.021-6.922,4.027-.629,0-1.384.629-1.888.629l-2.14.126c-3.146-.126-4.279-3.146-4.279-5.16,0-7.048,6.293-14.851,6.8-14.851.378-.126.378-.629.5-.881,1.007-2.643,5.412-5.034,7.174-5.034,1.51,0,.881,1.636,1.259,1.51.126,0,.252.252.252.629a3.672,3.672,0,0,1-1.133,2.517c-.378.5.126.629-.629,2.014,0,.126.252.378.378.629.252.252.126,1.259.881,1.636a2.951,2.951,0,0,0,1.384.252c2.391,0,3.776-2.517,3.776-4.783a3.484,3.484,0,0,0-.126-1.133c-.629-1.888-.629-2.265-1.007-2.643A5.711,5.711,0,0,0,175.12,18.8a1.527,1.527,0,0,0-.629-.126,1.145,1.145,0,0,0-1.007.5,36.478,36.478,0,0,0-6.67,3.272,3.551,3.551,0,0,0-1.259,1.51c-1.636.629-4.908,3.776-5.789,5.286L159.01,30l-.629.881c-1.762,2.014-3.65,4.531-5.16,6.041a1.6,1.6,0,0,0-.5.881.271.271,0,0,0,.252.252.757.757,0,0,0,.5-.126,26.738,26.738,0,0,0,3.272-3.272c-1.007,2.769-1.259,5.16-1.51,5.286a1.064,1.064,0,0,0-.252.755c0,.5.126,1.259.126,1.51,0,1.384.252,1.384.755,2.391,0,.378,0,.629.126.755,1.259,2.769,4.279,3.021,4.531,3.4.252.252.629.126,1.007.252h.5c.881,0,2.14-.126,2.643-.126.378,0,1.007-.5,1.384-.5.252,0,.755-.126.881-.126a7.292,7.292,0,0,0,1.636-.5C169.959,47.24,169.582,46.737,170.337,46.611Zm31.087-32.345a3,3,0,0,0,2.517,1.133c1.636,0,2.643-.378,2.643-1.762,0-.252.378,0,.755-.378a2.782,2.782,0,0,0,.5-1.636v-.629a1.73,1.73,0,0,0-1.888-1.636c-.378,0-.755.252-1.007.252-1.133.126-.881.755-1.133.755a2.719,2.719,0,0,0-1.762.755c-.252.252-.378.629-.629.755-.378.126-.378.378-.378.629v.629A2.03,2.03,0,0,0,201.424,14.266ZM188.712,29.62c-.378.378-2.643,2.895-4.657,4.657-.252.252-1.259,1.259-1.762,1.636a.86.86,0,0,0-.5.5,16.992,16.992,0,0,0-1.133,1.384.445.445,0,0,0,.5.5c.755-.252,1.636-1.51,3.4-3.146a21.351,21.351,0,0,0,1.762-1.259,39.452,39.452,0,0,1,6.293-5.915c-1.133,2.14-1.888,3.272-7.174,11.831l-.881,1.384c-.252.252.126.629-.629,1.384a5.682,5.682,0,0,0-.378,1.636,1.274,1.274,0,0,0,.252.881,3.073,3.073,0,0,0-.126.881,2.142,2.142,0,0,0,.126.881c0,.378.629,2.14,3.4,2.14,4.531,0,4.908-1.636,7.426-2.517,1.007-.378,3.146-2.895,4.908-4.153.5-.378,1.636-1.384,1.51-1.259.252,0,3.4-2.769,3.4-3.524,0-.126-.126-.378-.252-.378-.5,0-.755.5-1.133.755a16.447,16.447,0,0,0-1.51,1.384l-3.65,3.021c-.126.126-4.531,3.9-7.551,3.9-.378,0-.378-.126-.629-.126-.629,0-.881-.755-.881-1.762l.252-1.259a.937.937,0,0,1,.378-.881,3.5,3.5,0,0,0,.881-1.636c0-.881,1.133-2.14,1.133-2.265s.126-.126.126-.629c0,0,.755-1.133.881-1.259.5-.5.5-1.384.629-1.51,3.272-4.783,5.915-9.188,5.915-9.313a.447.447,0,0,1,.378-.252,2.447,2.447,0,0,1,1.133-1.762c0-.755,0-2.895-1.51-2.895a4.11,4.11,0,0,0-2.643,1.51,11.878,11.878,0,0,0-1.133.378c-.5.126-1.384,1.888-1.636,2.391l-1.259.881C191.733,26.726,189.342,28.991,188.712,29.62ZM213,35.913c.252,0,3.021-.755,3.524-1.384a.954.954,0,0,0,.5-.252,1.879,1.879,0,0,1,.881-.378c.126,0,.881-.5,1.259-.5a4.466,4.466,0,0,0,.881-.126,15.14,15.14,0,0,0,4.153-2.014s.126-.126.629-.126a20.133,20.133,0,0,1,2.391-1.384l1.133-.629c.881-.629,1.636-1.007,1.51-1.259-.126-.126.629-.629.755-.755a4.712,4.712,0,0,0,.755-1.259,1.866,1.866,0,0,0,.126-.881,1.6,1.6,0,0,0-.126-.755,5.193,5.193,0,0,0,.126-1.133.943.943,0,0,0-.126-.629L231,21.565a4.814,4.814,0,0,0-2.265-1.51,1.268,1.268,0,0,0-.378.126s-1.007-1.007-1.636-1.007h-.629a5.452,5.452,0,0,1-.629.126c-.126,0-.5.126-.629.126a3.991,3.991,0,0,0-2.14.629,19.2,19.2,0,0,0-2.014,1.384,15.389,15.389,0,0,0-2.391,1.51,20.542,20.542,0,0,0-4.908,3.776c-.126.252-1.384,1.007-2.895,2.517L209.6,30.5l-1.133,1.007c-.378.755-.126,1.007-.629,1.133-.881,1.007-2.643,3.146-4.153,4.657a1.385,1.385,0,0,0-.378.755c0,.126.252.252.5.252.5,0,1.636-1.636,2.517-2.014a14.209,14.209,0,0,0-1.259,4.279c.126,5.538,1.762,7.3,4.405,8.181a9.3,9.3,0,0,0,2.391.378,8.526,8.526,0,0,0,2.391-.378h.881c.252,0,.378-.126.629-.126.881,0,1.007-.5,1.762-.629a22.966,22.966,0,0,0,4.027-1.762L224.33,44.6a46.643,46.643,0,0,0,7.426-6.041c.378-.378.755-.755.755-1.007a.334.334,0,0,0-.378-.378A2.572,2.572,0,0,0,231,37.8a13.788,13.788,0,0,1-2.014,1.51c-.252.126-.755,1.007-1.384,1.51-.378.378-1.007.252-1.007.629,0,.126-.629.5-1.007.755a10.869,10.869,0,0,1-2.014,1.259c-.881.378-2.014,1.133-2.14,1.133a1.088,1.088,0,0,0-.755.378c-.755.755-2.265.881-3.65,1.259a8.563,8.563,0,0,1-1.888.252,4.656,4.656,0,0,1-3.65-1.51c-.126-.126-.126-.378-.252-.378s-.252-.252-.378-.378a2.481,2.481,0,0,1-.629-1.636,8.932,8.932,0,0,1-.252-1.762,3.724,3.724,0,0,1,.252-1.259c.378-1.007,0-1.762.881-3.021.629-.881.126-1.762.881-2.391.252-.252,2.14-3.524,2.391-3.9a54.022,54.022,0,0,1,4.405-5.412l.378-.378c.252-.252.881-.252,1.133-.5,1.888-1.888,3.524-2.643,4.405-2.643h.629a2.609,2.609,0,0,1,.755.252c.252.126.378.629.378,1.259a5.289,5.289,0,0,1-.629,2.769l-1.384,2.14c-.126.755-1.259,1.636-1.384,1.888-2.014,1.384-.755,1.007-2.14,1.51-.755.252-1.259,1.007-2.265,1.384-.5.126-2.643,1.007-2.643,1.384a.462.462,0,0,0,.126.378h-1.133a4.365,4.365,0,0,0-2.391,1.259,1.268,1.268,0,0,0-.378.126.4.4,0,0,0,.378.378A.974.974,0,0,0,213,35.913Zm21.522,7.677a3,3,0,0,0-.5,1.51,2.4,2.4,0,0,0,.5,1.259.757.757,0,0,1,.126.5c0,.378-.126.252-.126.629.126,1.133,1.259,1.636,2.517,1.636,1.762,0,3.272-.629,3.65-2.643a6.776,6.776,0,0,0,.126-1.007,2.768,2.768,0,0,0-.5-1.636c-.378-.378-.378-1.259-1.259-1.259a4.127,4.127,0,0,0-1.762-.5A3.313,3.313,0,0,0,234.524,43.59Zm30.458-29.325A3,3,0,0,0,267.5,15.4c1.636,0,2.643-.378,2.643-1.762,0-.252.378,0,.755-.378a2.782,2.782,0,0,0,.5-1.636v-.629a1.73,1.73,0,0,0-1.888-1.636c-.378,0-.755.252-1.007.252-1.133.126-.881.755-1.133.755a2.719,2.719,0,0,0-1.762.755c-.252.252-.378.629-.629.755-.378.126-.378.378-.378.629v.629A2.03,2.03,0,0,0,264.982,14.266ZM252.27,29.62c-.378.378-2.643,2.895-4.657,4.657-.252.252-1.259,1.259-1.762,1.636a.86.86,0,0,0-.5.5,16.992,16.992,0,0,0-1.133,1.384.445.445,0,0,0,.5.5c.755-.252,1.636-1.51,3.4-3.146a21.351,21.351,0,0,0,1.762-1.259,39.453,39.453,0,0,1,6.293-5.915c-1.133,2.14-1.888,3.272-7.174,11.831l-.881,1.384c-.252.252.126.629-.629,1.384a5.682,5.682,0,0,0-.378,1.636,1.274,1.274,0,0,0,.252.881,3.073,3.073,0,0,0-.126.881,2.142,2.142,0,0,0,.126.881c0,.378.629,2.14,3.4,2.14,4.531,0,4.908-1.636,7.426-2.517,1.007-.378,3.146-2.895,4.908-4.153.5-.378,1.636-1.384,1.51-1.259.252,0,3.4-2.769,3.4-3.524,0-.126-.126-.378-.252-.378-.5,0-.755.5-1.133.755a16.449,16.449,0,0,0-1.51,1.384l-3.65,3.021c-.126.126-4.531,3.9-7.551,3.9-.378,0-.378-.126-.629-.126-.629,0-.881-.755-.881-1.762l.252-1.259a.937.937,0,0,1,.378-.881,3.5,3.5,0,0,0,.881-1.636c0-.881,1.133-2.14,1.133-2.265s.126-.126.126-.629c0,0,.755-1.133.881-1.259.5-.5.5-1.384.629-1.51,3.272-4.783,5.915-9.188,5.915-9.313a.447.447,0,0,1,.378-.252,2.447,2.447,0,0,1,1.133-1.762c0-.755,0-2.895-1.51-2.895a4.11,4.11,0,0,0-2.643,1.51,11.879,11.879,0,0,0-1.133.378c-.5.126-1.384,1.888-1.636,2.391l-1.259.881C255.291,26.726,252.9,28.991,252.27,29.62Zm24.039-2.14c-.126.378-.629.5-.629.755,0,.126-2.014,1.762-2.517,2.769-.126.378-.5.252-.629.378-2.14,2.769-4.153,4.279-5.412,6.167,0,.378.252.629.378.629.252,0,.629-.5.755-.629a18.379,18.379,0,0,1,2.895-2.643c.755-.378,1.51-2.014,1.762-2.14,2.517-1.51,7.929-8.432,7.8-8.055l-4.908,9.313c-.252.5-1.259.881-3.9,6.545,0,.252-.378.378-.629.629-.378.252-.629,1.762-1.133,2.14-.252.252-.629,1.636-1.133,2.391a2.034,2.034,0,0,0-.5,1.259c0,1.259,2.14,1.762,2.265,2.014h.5c3.146,0,6.167-3.021,7.426-4.783,1.259-1.636,2.391-1.888,4.153-3.9,3.65-4.279,12.586-11.579,12.586-11.579a4.869,4.869,0,0,1-.126,1.133,29.308,29.308,0,0,1-1.133,2.895c-.5,1.133-1.007,2.769-1.259,3.524a18.675,18.675,0,0,0-.755,4.908c0,3.65,1.51,5.538,2.014,5.538a7.452,7.452,0,0,1,.755.5,6.777,6.777,0,0,0,1.007-.126.462.462,0,0,1,.378.126.462.462,0,0,0,.378.126,4.55,4.55,0,0,0,2.14-1.133s1.259-.378,1.259-.5a1.984,1.984,0,0,1,1.007-.881,10.361,10.361,0,0,1,2.643-2.391c.881-.378,2.391-3.021,3.146-3.021a7.648,7.648,0,0,0,1.636-1.762s0-.5-.252-.5a.74.74,0,0,0-.629.252,49.444,49.444,0,0,1-4.279,3.524,11.348,11.348,0,0,0-1.259,1.133c-2.14,2.265-3.021,2.643-3.9,2.643-1.133,0-1.259-.881-1.259-2.517a16.922,16.922,0,0,1,1.007-5.789c0-.126.126-.881.126-.881l.755-1.51a.757.757,0,0,0,.126-.5c0-1.384,1.636-2.391,1.636-3.65,0-.755,1.133-1.762,1.133-3.4v-.629c0-.252-1.007-.881-1.636-1.007-.252-.126-.252-.5-.629-.755a.462.462,0,0,0-.378-.126c-.881,0-2.14.126-2.517,1.133-.126.252-.252.252-.378.252-2.517.629-2.014,2.265-3.776,3.272-.755.755-4.153,4.279-4.657,4.279s-.755,1.007-.755,1.007-.629-.126-7.174,7.551l-3.146,3.272c-1.133,1.133-2.014,2.014-2.391,2.014,0-.881,2.014-5.286,5.16-10.446l.5-.755c0-.252,2.265-3.9,2.517-4.657,0-.252,0-.378.126-.5a39.994,39.994,0,0,0,5.664-9.565c0-.126.126-.252.126-.378a.674.674,0,0,0-.629-.629c-1.133-.252-1.636-1.384-2.517-1.384a1.368,1.368,0,0,0-.629.126c-.881.378-1.636,1.007-1.636,1.51s-.629,1.007-1.007,1.384C280.462,23.327,276.561,26.726,276.309,27.481ZM343.643,39.06a10.036,10.036,0,0,0-.755,1.007c-.629,0-2.014,1.762-2.265,1.888s-.378.252-.378.378,0,.252.378.252a1.879,1.879,0,0,0,1.259-.378,18.792,18.792,0,0,1,1.51-1.762c.5-.126.881-.881,1.384-1.384a1.268,1.268,0,0,0,.126-.378.334.334,0,0,0-.378-.378C344.272,38.3,344.021,38.682,343.643,39.06Zm1.384-.755c.378,0,.881-.126.881-.629-.126-.378-.252-.378-.378-.378C345.279,37.3,345.027,37.549,345.027,38.3ZM311.3,35.032a.462.462,0,0,0,.126-.378c0-.252-.378-.252-.629-.252-.755,0-.755,1.007-1.133,1.007-.881,1.007-2.14,2.265-2.14,2.391a.4.4,0,0,0,.378.378,16,16,0,0,0,2.014-1.762Zm0-1.384a.462.462,0,0,0-.126.378c0,.126.126.252.378.252a.961.961,0,0,0,.629-.252c2.265-2.895,5.16-4.908,5.16-5.412.629-.629-.126-1.007.881-1.007.126,0,3.65-3.776,3.65-3.776s-1.384,2.391-2.014,3.272c-.5.629-2.517,4.279-2.769,4.657l-3.4,5.034-.378,1.007-4.027,6.545s-.5.378-.5.629c-.126.755-.378.629-.629,1.384-.126.252-.5.5-.5.629,0,1.007.378,1.636,1.51,1.636.881,0,.881-.252,1.259-.252a5.13,5.13,0,0,1,.881.252c.881,0,1.762-2.014,2.265-2.895,0-1.384,4.153-7.3,5.16-9.313l.881-1.133a14.153,14.153,0,0,1,3.272-1.762,16.612,16.612,0,0,1,5.664-1.007,2.143,2.143,0,0,1,2.014,1.259c.126.126.126.252.126.5,0,.881-1.259,2.895-1.259,3.776a2.371,2.371,0,0,1-.252,1.007,27.156,27.156,0,0,0-.881,3.4c-.126.629-.252,1.259-.252,1.384s-.252,1.384-.252,1.762c0,.252.126,1.762.126,1.762a2.736,2.736,0,0,0,2.769,1.888,2.6,2.6,0,0,1,1.007.252c4.027-.252,5.16-3.4,6.293-3.524l1.384-1.133a4.151,4.151,0,0,0,1.133-1.636c0-.252-.252-.378-.5-.378-1.007,0-4.908,4.657-7.174,4.657a1.245,1.245,0,0,1-.629-.881V45.352a16.472,16.472,0,0,1,1.007-5.16,6.136,6.136,0,0,0,.5-1.384l.126-.629a19.715,19.715,0,0,0,1.007-3.9v-.755c-.126-.252.126-1.762-1.636-1.762-.378,0-.755-.252-1.384-.252l-4.783.252a32.88,32.88,0,0,0,5.16-2.14l3.4-1.888a3.928,3.928,0,0,0,1.51-.881c.755-.5,2.014-1.007,2.391-1.888l.755-.5a5.246,5.246,0,0,0,1.762-3.146,1.3,1.3,0,0,0-.126-.5,3.32,3.32,0,0,1,.126-.881,2.055,2.055,0,0,0-2.014-1.636h-.5a2.236,2.236,0,0,0-1.259-.5,1.369,1.369,0,0,0-.629.126c-1.259,1.007-1.259-.378-3.021,1.762,0,.378.126.5.252.5.252,0,.5-.252.755-.252a1.344,1.344,0,0,1,1.259,1.384v.755c0,.5-.5.881-.5,1.259s-.5.755-.5,1.007c0,.126-.252.252-.5.755-.5.5-.5,1.007-1.133,1.51-.378.252-1.007,1.007-1.51,1.007,0,0-2.895,2.517-10.824,4.783-.378,0-.5-.126-.5-.378.252-.252.5-.378.629-.755a13.7,13.7,0,0,1,1.259-2.14,12.36,12.36,0,0,1,2.014-3.776c.378-.378,1.888-3.65,2.391-4.405l2.769-4.657s.881-1.007,3.524-3.9l6.545-6.8c2.14-2.265,12.586-13.97,13.593-15.355.378-.252.5-.755.755-1.133.755-1.133,2.769-3.65,3.65-5.16a7.621,7.621,0,0,1,1.762-3.146,8.264,8.264,0,0,0,1.259-3.146c0-.5.755-1.259.755-2.769,0-.5.252-.881.252-1.51a1.6,1.6,0,0,0-.126-.755c-.755-1.636-.881-1.888-1.762-1.888h-1.259c-2.265,0-8.936,5.538-9.062,6.041a3.531,3.531,0,0,1-1.259,1.762c-.378.126-.629,1.007-1.636,2.14-2.14,2.265-7.8,12.208-9.943,15.355-.378.629-1.007,2.643-1.259,2.895a9.589,9.589,0,0,0-1.762,2.895c-.252.629-1.762,2.895-1.888,3.524A44.006,44.006,0,0,1,329.8,9.861c-1.133,1.51-5.664,9.817-6.041,10.32l-6.167,6.8c-2.14,2.265-3.9,3.776-3.9,4.027a2.258,2.258,0,0,1-.629.881A10.832,10.832,0,0,0,311.3,33.648ZM352.579-9.9c-.755.755-1.259,2.014-1.762,2.391a3.62,3.62,0,0,0-.5.755,4.453,4.453,0,0,1-1.636,2.014C347.041-3.1,344.146.044,343.643.044c-.252,0-.126.5-.378.755-4.027,4.783-10.824,11.579-10.824,11.579s3.9-5.915,6.545-10.7c0-.126.126-.252.252-.378l.252-.378.755-1.259c3.4-5.538,11.7-20.263,14.6-22.78a19.26,19.26,0,0,1,2.769-2.643,1.414,1.414,0,0,1,1.007-.378c.378,0,.5-.5.755-.5.126,0,.378.5.378.755a14.8,14.8,0,0,1-.378,2.643L359-21.856c0,.5-.252.378-.378.755a30.928,30.928,0,0,1-3.776,7.677,1.879,1.879,0,0,0-.378.881C354.467-12.164,352.831-10.654,352.579-9.9Z" fill="hsl(0, 0%, 100%)" transform="translate(0.2 32.05)"/></svg>