<?xml version="1.0" standalone="no"?>
<!DOCTYPE svg PUBLIC "-//W3C//DTD SVG 20010904//EN"
 "http://www.w3.org/TR/2001/REC-SVG-20010904/DTD/svg10.dtd">
<svg version="1.0" xmlns="http://www.w3.org/2000/svg"
 width="700.000000pt" height="700.000000pt" viewBox="0 0 700.000000 700.000000"
 preserveAspectRatio="xMidYMid meet">
<metadata>
Created by potrace 1.14, written by Peter Selinger 2001-2017
</metadata>
<g transform="translate(0.000000,700.000000) scale(0.100000,-0.100000)"
fill="#000000" stroke="none">
<path d="M3446 6555 c-81 -29 -141 -121 -181 -279 -34 -136 -47 -284 -46 -556
0 -437 40 -868 167 -1813 14 -104 24 -193 22 -199 -2 -6 -55 56 -118 138 -552
721 -909 1074 -1087 1074 -59 0 -97 -21 -118 -66 -78 -165 211 -487 951 -1062
115 -89 218 -169 229 -177 19 -16 18 -16 -15 -11 -224 35 -980 125 -1265 150
-460 41 -913 45 -1135 11 -268 -42 -409 -134 -410 -268 0 -26 6 -62 14 -80 20
-50 97 -111 175 -140 172 -64 351 -81 760 -74 420 8 738 37 1545 142 187 25
341 43 343 41 2 -1 -41 -36 -94 -77 -738 -561 -1080 -901 -1100 -1093 -7 -64
8 -95 60 -126 39 -24 67 -25 132 -2 120 41 316 210 538 462 110 125 404 489
527 652 36 48 66 85 68 84 1 -2 -7 -70 -18 -152 -188 -1383 -221 -2121 -108
-2468 39 -120 112 -208 183 -222 308 -57 406 452 304 1576 -22 243 -75 703
-118 1015 -16 116 -27 211 -26 213 1 1 35 -42 76 -95 464 -613 812 -979 1007
-1059 72 -30 110 -30 153 -1 46 31 61 63 56 119 -15 181 -329 503 -999 1023
-110 85 -197 155 -194 155 3 0 142 -18 308 -40 940 -123 1333 -155 1776 -147
356 6 514 33 646 111 122 72 148 208 59 307 -96 107 -304 157 -688 166 -413
10 -900 -30 -1795 -147 -162 -21 -296 -37 -298 -36 -1 2 44 39 100 82 508 388
871 714 1004 901 52 72 93 163 94 206 0 43 -29 96 -61 112 -154 80 -438 -156
-933 -775 -73 -91 -172 -218 -221 -282 -49 -64 -91 -116 -92 -114 -2 2 8 86
22 187 67 498 118 956 147 1324 17 217 17 732 0 855 -37 262 -101 403 -207
451 -47 22 -86 23 -139 4z"/>
</g>
</svg>
